<svg width="56" height="55" viewBox="0 0 56 55" fill="none" xmlns="http://www.w3.org/2000/svg">
<g id="round" clip-path="url(#clip0_806_2130)">
<path id="Subtract" fill-rule="evenodd" clip-rule="evenodd" d="M28.0034 0.00958252C24.8469 0.00958252 21.8165 0.550353 19 1.54431V2.6076C21.8059 1.57398 24.8388 1.00958 28.0034 1.00958C42.3881 1.00958 54.0508 12.6706 54.0508 27.0552C54.0508 32.3801 52.4526 37.3318 49.7097 41.4569H50.9011C53.5298 37.2869 55.0508 32.3486 55.0508 27.0552C55.0508 12.1183 42.9403 0.00958252 28.0034 0.00958252ZM48.1886 45.0573C43.2351 50.6068 36.027 54.1008 28.0034 54.1008C19.9799 54.1008 12.7718 50.6068 7.81832 45.0574H9.17977C13.922 50.0139 20.6024 53.1008 28.0034 53.1008C35.4044 53.1008 42.0849 50.0139 46.8271 45.0573H48.1886ZM5.10579 41.4569C2.47706 37.2869 0.956081 32.3486 0.956081 27.0552C0.956081 24.8858 1.21154 22.776 1.69401 20.7544H2.72347C2.22215 22.772 1.95608 24.8825 1.95608 27.0552C1.95608 32.3801 3.5543 37.3318 6.29719 41.4569H5.10579ZM14.4994 3.61668C9.79114 6.33494 5.97821 10.431 3.61188 15.3537H4.72665C6.93055 10.9791 10.3316 7.31076 14.4994 4.77903V3.61668Z" fill="#323232"/>
<path id="Subtract_2" fill-rule="evenodd" clip-rule="evenodd" d="M46.3736 44.1573H48.9648C44.0079 50.5673 36.2419 54.6948 27.5118 54.6948C18.7818 54.6948 11.0158 50.5673 6.05885 44.1573H8.65014C13.2508 49.3914 19.9955 52.6948 27.5118 52.6948C35.0282 52.6948 41.7729 49.3914 46.3736 44.1573ZM4.28394 18.0541H2.13439C4.66458 11.325 9.79449 5.86865 16.3003 2.90881V5.12508C10.8917 7.8294 6.59598 12.4293 4.28394 18.0541Z" fill="#EA5F1B"/>
</g>
<defs>
<clipPath id="clip0_806_2130">
<rect width="56" height="55" fill="white" transform="matrix(-1 0 0 1 56 0)"/>
</clipPath>
</defs>
</svg>
