<svg width="82" height="82" viewBox="0 0 82 82" fill="none" xmlns="http://www.w3.org/2000/svg">
<g opacity="0.1" clip-path="url(#clip0_1202_1970)">
<path d="M48.0648 44.5329C48.9301 44.533 49.7653 44.8507 50.412 45.4257C51.0586 46.0007 51.4717 46.793 51.573 47.6524L51.5977 48.0658V69.263C51.5967 70.1635 51.2519 71.0296 50.6337 71.6843C50.0156 72.3391 49.1708 72.7331 48.2718 72.7859C47.3729 72.8387 46.4878 72.5462 45.7973 71.9683C45.1068 71.3903 44.663 70.5705 44.5567 69.6764L44.5319 69.263V48.0658C44.5319 47.1288 44.9041 46.2302 45.5667 45.5676C46.2292 44.9051 47.1278 44.5329 48.0648 44.5329ZM58.6634 60.4308C59.6004 60.4308 60.499 60.803 61.1616 61.4656C61.8241 62.1281 62.1963 63.0267 62.1963 63.9637V69.263C62.1963 70.2 61.8241 71.0986 61.1616 71.7612C60.499 72.4237 59.6004 72.7959 58.6634 72.7959C57.7265 72.7959 56.8279 72.4237 56.1653 71.7612C55.5028 71.0986 55.1306 70.2 55.1306 69.263V63.9637C55.1306 63.0267 55.5028 62.1281 56.1653 61.4656C56.8279 60.803 57.7265 60.4308 58.6634 60.4308ZM69.2621 44.5329C70.1274 44.533 70.9626 44.8507 71.6092 45.4257C72.2559 46.0007 72.669 46.793 72.7702 47.6524L72.795 48.0658V69.263C72.794 70.1635 72.4492 71.0296 71.831 71.6843C71.2129 72.3391 70.368 72.7331 69.4691 72.7859C68.5702 72.8387 67.6851 72.5462 66.9946 71.9683C66.3041 71.3903 65.8603 70.5705 65.7539 69.6764L65.7292 69.263V48.0658C65.7292 47.1288 66.1014 46.2302 66.764 45.5676C67.4265 44.9051 68.3251 44.5329 69.2621 44.5329ZM30.4004 44.5329C32.2744 44.5329 34.0716 45.2773 35.3966 46.6024C36.7217 47.9275 37.4662 49.7247 37.4662 51.5986V65.7301C37.4662 67.6041 36.7217 69.4013 35.3966 70.7264C34.0716 72.0515 32.2744 72.7959 30.4004 72.7959H16.2689C14.3949 72.7959 12.5977 72.0515 11.2726 70.7264C9.94755 69.4013 9.20313 67.6041 9.20312 65.7301V51.5986C9.20312 49.7247 9.94755 47.9275 11.2726 46.6024C12.5977 45.2773 14.3949 44.5329 16.2689 44.5329H30.4004ZM58.6634 44.5329C59.5288 44.533 60.3639 44.8507 61.0106 45.4257C61.6572 46.0007 62.0704 46.793 62.1716 47.6524L62.1963 48.0658V53.3651C62.1953 54.2655 61.8505 55.1316 61.2324 55.7864C60.6142 56.4412 59.7694 56.8352 58.8705 56.888C57.9716 56.9407 57.0864 56.6483 56.3959 56.0703C55.7054 55.4924 55.2616 54.6726 55.1553 53.7784L55.1306 53.3651V48.0658C55.1306 47.1288 55.5028 46.2302 56.1653 45.5676C56.8279 44.9051 57.7265 44.5329 58.6634 44.5329ZM30.4004 9.20407C32.2744 9.20407 34.0716 9.9485 35.3966 11.2736C36.7217 12.5987 37.4662 14.3959 37.4662 16.2698V30.4014C37.4662 32.2753 36.7217 34.0725 35.3966 35.3976C34.0716 36.7227 32.2744 37.4671 30.4004 37.4671H16.2689C14.3949 37.4671 12.5977 36.7227 11.2726 35.3976C9.94755 34.0725 9.20313 32.2753 9.20312 30.4014V16.2698C9.20312 14.3959 9.94755 12.5987 11.2726 11.2736C12.5977 9.9485 14.3949 9.20407 16.2689 9.20407H30.4004ZM65.7292 9.20407C67.6032 9.20407 69.4004 9.9485 70.7254 11.2736C72.0505 12.5987 72.795 14.3959 72.795 16.2698V30.4014C72.795 32.2753 72.0505 34.0725 70.7254 35.3976C69.4004 36.7227 67.6032 37.4671 65.7292 37.4671H51.5977C49.7237 37.4671 47.9265 36.7227 46.6014 35.3976C45.2764 34.0725 44.5319 32.2753 44.5319 30.4014V16.2698C44.5319 14.3959 45.2764 12.5987 46.6014 11.2736C47.9265 9.9485 49.7237 9.20407 51.5977 9.20407H65.7292Z" fill="#505050"/>
</g>
<defs>
<clipPath id="clip0_1202_1970">
<rect width="82" height="82" fill="white"/>
</clipPath>
</defs>
</svg>
