<svg width="57" height="56" viewBox="0 0 57 56" fill="none" xmlns="http://www.w3.org/2000/svg">
<g clip-path="url(#clip0_650_1626)">
<path fill-rule="evenodd" clip-rule="evenodd" d="M54.7483 17.1693C51.7579 10.3119 46.0153 4.9278 38.9169 2.42043V3.48388C45.4621 5.89714 50.7753 10.8618 53.6531 17.1693H54.7483ZM56.0258 20.7795C56.6595 23.0789 56.998 25.5002 56.998 28C56.998 42.9642 44.8672 55.1179 29.902 55.1179C24.5979 55.1179 19.6499 53.5912 15.4719 50.9538V49.7619C19.6051 52.5137 24.5666 54.1179 29.902 54.1179C44.3139 54.1179 55.998 42.413 55.998 28C55.998 25.4957 55.6453 23.0731 54.9868 20.7795H56.0258ZM29.902 1.88214C31.4386 1.88214 32.9443 2.01521 34.4081 2.27046V1.25577C32.9426 1.01004 31.4372 0.882141 29.902 0.882141C24.5979 0.882141 19.6499 2.40883 15.4719 5.04626V6.23815C19.6051 3.4863 24.5666 1.88214 29.902 1.88214ZM11.8648 48.2328C6.30574 43.2646 2.80588 36.0378 2.80588 28C2.80588 20.4061 5.92992 13.5359 10.9631 8.61063V10.0362C6.52717 14.7193 3.80588 21.0443 3.80588 28C3.80588 35.4155 6.89879 42.1141 11.8648 46.8706V48.2328Z" fill="#323232"/>
<path fill-rule="evenodd" clip-rule="evenodd" d="M12.0763 47.281L12.0763 49.9254C5.83543 44.8648 1.84653 37.1356 1.84653 28.4748L1.84653 27.5252C1.84654 18.8644 5.83543 11.1352 12.0763 6.07465L12.0763 8.71897C7.01547 13.3962 3.84654 20.0906 3.84653 27.5252L3.84653 28.4748C3.84653 35.9094 7.01547 42.6038 12.0763 47.281ZM38.2274 3.46798L38.2274 1.34859C45.9242 3.9288 52.1077 9.80862 55.0977 17.3078L52.9304 17.3078C50.143 10.9108 44.8183 5.87373 38.2274 3.46798Z" fill="#EA5F1B"/>
</g>
<defs>
<clipPath id="clip0_650_1626">
<rect width="56.0004" height="56" fill="white" transform="matrix(-1 0 0 1 56.998 0)"/>
</clipPath>
</defs>
</svg>
