<svg width="82" height="82" viewBox="0 0 82 82" fill="none" xmlns="http://www.w3.org/2000/svg">
<g opacity="0.1">
<path d="M77.4455 27.3333H44.6455C43.679 27.3333 42.752 27.7066 42.0685 28.3711C41.3851 29.0356 41.0011 29.9368 41.0011 30.8765V51.1235C41.0011 52.0632 41.3851 52.9644 42.0685 53.6289C42.752 54.2934 43.679 54.6667 44.6455 54.6667H77.4455V69.3457C77.4455 70.2854 77.0616 71.1866 76.3781 71.8511C75.6946 72.5156 74.7677 72.8889 73.8011 72.8889H8.20109C7.23452 72.8889 6.30754 72.5156 5.62407 71.8511C4.94061 71.1866 4.55664 70.2854 4.55664 69.3457V12.6543C4.55664 11.7146 4.94061 10.8134 5.62407 10.1489C6.30754 9.48442 7.23452 9.11111 8.20109 9.11111H73.8011C74.7677 9.11111 75.6946 9.48442 76.3781 10.1489C77.0616 10.8134 77.4455 11.7146 77.4455 12.6543V27.3333Z" fill="#505050"/>
<path d="M68.3336 36.4445H50.1113V45.5556H68.3336V36.4445Z" fill="#505050"/>
</g>
</svg>
