<svg width="18" height="18" viewBox="0 0 18 18" fill="none" xmlns="http://www.w3.org/2000/svg">
<path d="M14.8801 3.27055C13.7691 2.72493 12.5937 2.33724 11.3851 2.11774C11.2345 2.40342 11.0586 2.78767 10.9373 3.09336C9.63419 2.88769 8.34302 2.88769 7.06383 3.09336C6.94259 2.78774 6.76273 2.40342 6.61079 2.11774C5.40094 2.33734 4.22457 2.72602 3.11303 3.2734C0.901148 6.78173 0.301523 10.2028 0.601302 13.5755C2.06837 14.7254 3.4901 15.4239 4.88788 15.8811C5.23526 15.3796 5.54234 14.8488 5.80595 14.294C5.30408 14.0934 4.82027 13.8463 4.36026 13.5555C4.48131 13.4613 4.59952 13.3632 4.7147 13.2612C7.50218 14.6297 10.5309 14.6297 13.2852 13.2612C13.4009 13.3625 13.5191 13.4606 13.6396 13.5555C13.1788 13.8471 12.6941 14.0947 12.1912 14.2954C12.4564 14.8525 12.7629 15.3839 13.1093 15.8824C14.5084 15.4254 15.9315 14.7268 17.3985 13.5755C17.7503 9.66575 16.7977 6.27599 14.8801 3.27049V3.27055ZM6.18573 11.5014C5.34893 11.5014 4.66268 10.6814 4.66268 9.68291C4.66268 8.68443 5.33431 7.86307 6.18573 7.86307C7.03723 7.86307 7.72341 8.68297 7.70879 9.68291C7.71011 10.6814 7.03723 11.5014 6.18573 11.5014ZM11.8141 11.5014C10.9773 11.5014 10.2911 10.6814 10.2911 9.68291C10.2911 8.68443 10.9627 7.86307 11.8141 7.86307C12.6656 7.86307 13.3518 8.68297 13.3372 9.68291C13.3372 10.6814 12.6656 11.5014 11.8141 11.5014Z" fill="#141313"/>
</svg>
