<svg width="28" height="25" viewBox="0 0 28 25" fill="none" xmlns="http://www.w3.org/2000/svg">
<path d="M14 1C7.63654 4.16789 2.34636 13.3952 1 20.2783C4.88805 20.2783 7.73209 21.5901 9.78467 23.8977L10.3521 23.241C8.83138 21.583 6.83294 20.2293 4.1975 18.8822C5.61426 15.1477 7.77588 9.49583 10.5231 9.16679C11.5981 9.03799 12.7478 9.72581 14 11.6612C17.9199 4.75482 21.6422 13.8743 23.8025 18.8822C21.2181 20.3668 19.223 21.7225 17.6801 23.4025L18.1814 24C20.2048 21.717 23.0404 20.2783 27 20.2783C25.4031 13.4813 20.4961 4.35009 14 1Z" fill="#EA5F1B"/>
</svg>
