<svg width="18" height="18" viewBox="0 0 18 18" fill="none" xmlns="http://www.w3.org/2000/svg">
<path d="M17.25 3.85135C16.6432 4.12195 15.9914 4.3048 15.3061 4.38744C16.0132 3.96163 16.5421 3.29146 16.7943 2.50197C16.13 2.8991 15.403 3.17863 14.6448 3.32842C14.135 2.78052 13.4596 2.41737 12.7237 2.29534C11.9878 2.17331 11.2324 2.29923 10.5749 2.65355C9.91731 3.00787 9.39439 3.57077 9.08728 4.25485C8.78017 4.93893 8.70605 5.70592 8.87643 6.43674C7.53039 6.36872 6.21361 6.0166 5.01153 5.40324C3.80945 4.78988 2.74895 3.92899 1.89885 2.87643C1.60818 3.38108 1.44104 3.96617 1.44104 4.5893C1.44072 5.15025 1.57797 5.70262 1.84063 6.19738C2.10328 6.69215 2.48322 7.11401 2.94672 7.42555C2.40918 7.40833 1.8835 7.26215 1.41343 6.99916V7.04304C1.41337 7.82981 1.68378 8.59236 2.17876 9.20131C2.67373 9.81026 3.3628 10.2281 4.12903 10.3839C3.63037 10.5198 3.10756 10.5398 2.6001 10.4424C2.81628 11.1194 3.23739 11.7114 3.80447 12.1355C4.37155 12.5596 5.05622 12.7947 5.76261 12.8077C4.56347 13.7551 3.08253 14.269 1.55804 14.2668C1.28799 14.2669 1.01817 14.251 0.749969 14.2192C2.29742 15.2206 4.09876 15.7521 5.93847 15.75C12.1661 15.75 15.5706 10.5587 15.5706 6.05643C15.5706 5.91015 15.567 5.76241 15.5604 5.61614C16.2227 5.13415 16.7943 4.53729 17.2485 3.85354L17.25 3.85135Z" fill="#141313"/>
</svg>
