<svg width="683" height="683" viewBox="0 0 683 683" fill="none" xmlns="http://www.w3.org/2000/svg">
<path d="M309.333 1.46661C230.933 8.93327 157.333 43.8666 100.667 100.667C39.8668 161.333 4.80011 240 0.533445 324.8C-0.266555 339.867 -0.133222 342.8 2.00011 347.2C9.06678 362.133 29.2001 364 38.8001 350.4C41.4668 346.8 42.0001 343.733 42.9334 328.8C47.6001 250.933 77.2001 184.267 130.667 130.667C166.267 94.9333 209.467 69.1999 258 54.7999C283.467 47.1999 283.467 46.2666 259.067 70.7999C238.8 91.4666 237.467 93.0666 236.667 98.9333C234.4 114.133 248.267 126.533 263.067 122.533C267.867 121.333 274.4 115.333 312.4 77.5999C359.333 30.7999 361.333 28.1333 359.333 17.7333C358.133 11.1999 352.8 4.26661 347.2 1.86661C342.267 -0.133393 328 -0.400059 309.333 1.46661Z" fill="white"/>
<path d="M422.667 29.3333C408 31.2 395.6 36.8 382.667 47.4666C377.867 51.3333 299.6 129.067 208.533 220.267C55.4667 373.6 42.8 386.667 38.4 395.333C31.3333 408.933 28.9333 418.667 28.9333 432.667C28.9333 446.667 31.3333 456.4 38.4 470C42.6667 478.4 50.5334 486.667 117.2 553.733C158 594.667 195.2 631.333 200 635.2C216 648.267 230.8 653.733 250 653.733C264 653.733 273.867 651.2 287.333 644.267C296 639.867 309.067 627.2 462.4 474.133C553.6 383.067 631.333 304.8 635.2 300C648.267 284.133 653.733 269.2 653.733 250C653.733 231.2 648.4 216.267 636 200.667C632.4 196.267 595.733 159.067 554.4 117.867C486.8 50.5333 478.4 42.6666 470 38.4C454.4 30.2666 438.267 27.2 422.667 29.3333ZM444.933 73.4666C448 74.4 450.8 77.0666 454 81.8666C456.533 85.7333 458.667 89.7333 458.667 90.6666C458.667 91.6 456 95.8666 452.8 100.133C444.533 111.067 442.267 118.8 442.933 133.2C443.733 151.733 444.533 152.8 486.4 194.933C528.8 237.6 530.533 238.8 549.333 239.733C563.867 240.4 571.6 238.133 582.533 229.867C586.8 226.667 591.333 224 592.667 224C594.933 224 599.867 227.333 606 232.8C612.667 238.933 613.067 257.067 606.667 267.333C605.2 269.467 528.4 347.067 435.733 439.467C296.533 578.533 266.4 608 262 609.467C254 612.133 242.667 611.6 235.867 608.267C231.733 606.267 207.867 583.2 152.533 527.733C68.9334 444 71.4667 446.933 71.4667 432.667C71.4667 418 61.6 428.667 242.533 247.6C334.667 155.333 411.733 78.5333 413.867 76.9333C422 71.0666 433.6 69.7333 444.933 73.4666Z" fill="white"/>
<path d="M654 325.067C648 327.867 641.6 334.667 640.8 339.067C640.4 340.667 639.867 348.933 639.333 357.333C633.867 463.867 570 560.533 473.067 608.933C456.267 617.333 440 623.6 423.333 628.4C399.333 635.067 399.333 636.267 423.6 611.867C443.867 591.2 445.2 589.6 446 583.733C448.267 568.533 434.4 556.133 419.6 560.133C414.8 561.333 408.267 567.333 370.933 604.4C346.4 628.8 326.667 649.6 325.067 652.533C319.867 662.667 324.533 675.467 335.467 680.667C345.333 685.333 388.667 681.067 424.8 672C449.867 665.6 466.133 659.6 490 648C602.133 593.333 675.867 482 682.133 357.867C682.933 342.8 682.8 339.867 680.667 335.467C675.6 324.8 664.133 320.4 654 325.067Z" fill="white"/>
<rect x="488.142" y="124" width="100" height="20" rx="4" transform="rotate(45 488.142 124)" fill="#141313"/>
</svg>
